<?xml version="1.0" encoding="UTF-8"?>
<svg id="Layer_1" data-name="Layer 1" xmlns="http://www.w3.org/2000/svg" viewBox="280 300 950 250">
  <defs>
    <style>
      .cls-1 {
        fill: #fdf2e0;
      }

      .cls-2 {
        fill: #fd5e02;
      }
    </style>
  </defs>
  <path class="cls-1" d="M546.2,520.54v-105.99h73.13v19.08h-53v28.09h47.87v18.9h-47.87v39.92h-20.14ZM627.11,498.63c0-15.19,9.19-26.14,30.03-26.14h24.73v-3.36c0-11.31-4.59-17.49-16.08-17.49-10.25,0-16.08,4.59-18.02,16.61l-18.2-2.47c2.47-18.55,13.43-30.03,36.92-30.03s34.27,12.01,34.27,33.21v51.58h-18.9v-20.84h-.35c-3.71,14.84-13.96,22.61-28.26,22.61-15.37,0-26.14-7.77-26.14-23.67ZM659.97,486.62c-9.19,0-14.13,3.36-14.13,9.01s3.71,11.13,14.49,11.13c13.07,0,21.55-7.42,21.55-17.49v-2.65h-21.9ZM732.23,464.72c3.71-21.73,11.13-27.2,23.67-27.2h4.77v21.37h-8.13c-14.84,0-20.67,5.12-20.67,19.61v42.04h-19.08v-83.03h19.08v27.2h.35ZM848.05,470.02c3.36,12.01,6.18,24.56,9.01,37.45h.35c2.65-12.9,5.83-24.55,9.19-37.8l7.77-32.15h18.9l-25.08,83.03h-23.14l-9.36-36.21c-2.83-11.13-5.12-22.26-7.24-33.74h-.35c-2.12,11.31-4.77,22.79-7.42,33.74l-8.83,36.21h-22.97l-25.26-83.03h19.61l8.83,32.15c3.71,13.07,6.71,24.91,9.36,37.8h.35c2.83-12.9,5.65-25.44,8.83-37.45l8.3-32.5h20.67l8.48,32.5ZM893.28,498.63c0-15.19,9.19-26.14,30.03-26.14h24.73v-3.36c0-11.31-4.59-17.49-16.08-17.49-10.25,0-16.08,4.59-18.02,16.61l-18.19-2.47c2.47-18.55,13.43-30.03,36.92-30.03s34.27,12.01,34.27,33.21v51.58h-18.9v-20.84h-.35c-3.71,14.84-13.96,22.61-28.26,22.61-15.37,0-26.14-7.77-26.14-23.67ZM926.14,486.62c-9.19,0-14.13,3.36-14.13,9.01s3.71,11.13,14.49,11.13c13.07,0,21.55-7.42,21.55-17.49v-2.65h-21.9ZM971.19,437.51h20.84l10.78,30.03c3.53,9.54,7.95,22.08,12.01,33.39h.35c3.89-11.48,8.13-23.49,11.13-33.03l9.72-30.38h20.49l-34.09,83.91c-8.48,20.85-18.73,30.03-37.8,30.03-5.3,0-8.83-.53-12.72-1.06l2.65-17.84c3.71.71,7.07,1.24,10.6,1.24,9.54,0,14.31-2.12,19.61-14.49l-33.56-81.79ZM1058.81,465.95c0-18.2,13.25-28.44,35.68-28.44h40.63v16.08h-10.78c-4.06,0-8.13,0-13.78-.35v.18c10.07,1.94,17.84,6.36,17.84,17.49,0,14.66-12.19,22.26-34.8,22.26-5.3,0-10.07-.71-14.31-1.77l-1.77,2.83c-1.24,1.77-1.94,2.83-1.94,4.24,0,3.18,2.3,4.42,7.24,4.42,9.89,0,20.49-.53,29.68-.53,17.67,0,25.08,7.77,25.08,20.67,0,15.55-10.78,24.2-42.22,24.03-32.33.18-41.34-6.36-41.34-16.96,0-7.07,6.89-12.54,19.79-14.31-8.3-.88-12.72-4.77-12.72-10.95,0-4.24,3.71-8.66,10.42-10.95l6.54-2.83c-12.54-3.71-19.25-12.54-19.25-25.08ZM1068.88,524.25c0,6.36,4.95,8.66,26.14,8.66,22.61,0,27.38-3.18,27.38-9.89,0-3.71-2.3-6.89-9.19-6.89h-31.8c-8.66,0-12.54,4.06-12.54,8.13ZM1075.95,467.01c0,8.3,4.77,13.6,17.84,13.6s18.19-5.12,18.19-13.6-6.01-13.78-18.37-13.78-17.67,5.48-17.67,13.78ZM1139.37,478.85c0-27.38,16.96-43.46,42.57-43.46s42.4,16.08,42.4,43.46-16.08,43.99-42.4,43.99-42.57-16.78-42.57-43.99ZM1158.45,478.67c0,16.08,8.3,26.67,23.32,26.67s23.67-10.6,23.67-26.67-8.83-25.97-23.49-25.97-23.49,10.07-23.49,25.97Z"/>
  <path class="cls-2" d="M470.11,416.18h-118.36c-4.67,0-8.45,3.79-8.45,8.45v118.36c0,4.67-3.79,8.45-8.45,8.45h-50.73c-4.67,0-8.45-3.79-8.45-8.45v-78.99c0-8.97,3.56-17.57,9.9-23.91l81.64-81.64c6.34-6.34,14.94-9.9,23.91-9.9h78.99c4.67,0,8.45,3.79,8.45,8.45v50.73c0,4.67-3.79,8.45-8.45,8.45ZM384.33,481.13c-2.66-2.66-7.22-.78-7.22,2.99v58.88c0,4.67,3.79,8.45,8.45,8.45h58.88c3.77,0,5.65-4.55,2.99-7.22l-63.1-63.11ZM470.11,450h-58.88c-3.77,0-5.65,4.55-2.99,7.22l63.11,63.11c2.66,2.66,7.22.78,7.22-2.99v-58.88c0-4.67-3.79-8.45-8.45-8.45Z"/>
</svg>