<?xml version="1.0" encoding="UTF-8"?>
<svg id="Layer_1" data-name="Layer 1" xmlns="http://www.w3.org/2000/svg" viewBox="0 0 1500 900">
  <defs>
    <style>
      .cls-1 {
        fill: #fcf5e3;
      }
    </style>
  </defs>
  <path class="cls-1" d="M516.19,470.24v-110.68h76.37v19.92h-55.34v29.33h49.99v19.74h-49.99v41.69h-21.03ZM600.69,447.37c0-15.86,9.59-27.3,31.36-27.3h25.83v-3.5c0-11.81-4.8-18.26-16.79-18.26-10.7,0-16.79,4.8-18.82,17.34l-19-2.58c2.58-19.37,14.02-31.36,38.55-31.36s35.79,12.54,35.79,34.68v53.86h-19.74v-21.77h-.37c-3.87,15.5-14.57,23.61-29.52,23.61-16.05,0-27.3-8.12-27.3-24.72ZM635,434.83c-9.59,0-14.76,3.51-14.76,9.41s3.87,11.62,15.13,11.62c13.65,0,22.51-7.75,22.51-18.26v-2.77h-22.87ZM710.45,411.95c3.87-22.69,11.62-28.41,24.72-28.41h4.98v22.32h-8.49c-15.5,0-21.58,5.35-21.58,20.48v43.9h-19.92v-86.7h19.92v28.41h.37ZM831.4,417.49c3.5,12.54,6.46,25.64,9.41,39.11h.37c2.77-13.47,6.09-25.64,9.59-39.48l8.12-33.57h19.74l-26.19,86.7h-24.17l-9.78-37.82c-2.95-11.62-5.35-23.24-7.56-35.23h-.37c-2.21,11.81-4.98,23.8-7.75,35.23l-9.22,37.82h-23.98l-26.38-86.7h20.48l9.22,33.57c3.87,13.65,7.01,26.01,9.78,39.48h.37c2.95-13.47,5.9-26.56,9.22-39.11l8.67-33.94h21.58l8.85,33.94ZM878.63,447.37c0-15.86,9.59-27.3,31.36-27.3h25.83v-3.5c0-11.81-4.8-18.26-16.79-18.26-10.7,0-16.79,4.8-18.82,17.34l-19-2.58c2.58-19.37,14.02-31.36,38.55-31.36s35.79,12.54,35.79,34.68v53.86h-19.74v-21.77h-.37c-3.87,15.5-14.57,23.61-29.52,23.61-16.05,0-27.3-8.12-27.3-24.72ZM912.94,434.83c-9.59,0-14.76,3.51-14.76,9.41s3.87,11.62,15.13,11.62c13.65,0,22.51-7.75,22.51-18.26v-2.77h-22.87ZM959.98,383.54h21.77l11.25,31.36c3.69,9.96,8.3,23.06,12.54,34.86h.37c4.06-11.99,8.49-24.53,11.62-34.5l10.15-31.73h21.4l-35.6,87.62c-8.85,21.77-19.55,31.36-39.48,31.36-5.53,0-9.22-.55-13.28-1.11l2.77-18.63c3.87.74,7.38,1.29,11.07,1.29,9.96,0,14.94-2.21,20.48-15.13l-35.05-85.41ZM1051.49,413.24c0-19,13.83-29.7,37.26-29.7h42.43v16.79h-11.25c-4.24,0-8.49,0-14.39-.37v.18c10.51,2.03,18.63,6.64,18.63,18.26,0,15.31-12.73,23.24-36.34,23.24-5.53,0-10.51-.74-14.94-1.84l-1.84,2.95c-1.29,1.84-2.03,2.95-2.03,4.43,0,3.32,2.4,4.61,7.56,4.61,10.33,0,21.4-.55,30.99-.55,18.45,0,26.19,8.12,26.19,21.58,0,16.23-11.25,25.27-44.09,25.09-33.76.18-43.17-6.64-43.17-17.71,0-7.38,7.19-13.1,20.66-14.94-8.67-.92-13.28-4.98-13.28-11.44,0-4.43,3.87-9.04,10.88-11.44l6.83-2.95c-13.1-3.87-20.11-13.1-20.11-26.19ZM1062,474.12c0,6.64,5.17,9.04,27.3,9.04,23.61,0,28.59-3.32,28.59-10.33,0-3.87-2.4-7.19-9.59-7.19h-33.2c-9.04,0-13.1,4.24-13.1,8.48ZM1069.38,414.35c0,8.67,4.98,14.2,18.63,14.2s19-5.35,19-14.2-6.27-14.39-19.18-14.39-18.45,5.72-18.45,14.39ZM1135.61,426.71c0-28.59,17.71-45.38,44.46-45.38s44.27,16.79,44.27,45.38-16.79,45.93-44.27,45.93-44.46-17.53-44.46-45.93ZM1155.53,426.53c0,16.79,8.67,27.86,24.35,27.86s24.72-11.07,24.72-27.86-9.22-27.12-24.53-27.12-24.53,10.51-24.53,27.12Z"/>
  <path class="cls-1" d="M448.54,419.7h-105.23c-4.15,0-7.52,3.37-7.52,7.52v105.23c0,4.15-3.37,7.52-7.52,7.52h-45.1c-4.15,0-7.52-3.37-7.52-7.52v-70.23c0-7.97,3.17-15.62,8.81-21.26l72.59-72.59c5.64-5.64,13.29-8.81,21.26-8.81h70.23c4.15,0,7.52,3.37,7.52,7.52v45.1c0,4.15-3.37,7.52-7.52,7.52ZM372.28,477.44c-2.37-2.37-6.42-.69-6.42,2.66v52.35c0,4.15,3.37,7.52,7.52,7.52h52.35c3.35,0,5.03-4.05,2.66-6.42l-56.1-56.11ZM448.54,449.76h-52.35c-3.35,0-5.03,4.05-2.66,6.42l56.11,56.11c2.37,2.37,6.42.69,6.42-2.66v-52.35c0-4.15-3.37-7.52-7.52-7.52Z"/>
  <path class="cls-1" d="M516.19,539.96v-55.49h12.09v45.26h22.41v10.23h-34.51ZM603.19,526.68c-2.37,4.31-5.67,7.68-9.92,10.11-4.25,2.43-9.08,3.65-14.51,3.65s-10.27-1.22-14.51-3.65c-4.25-2.43-7.55-5.8-9.92-10.11-2.37-4.31-3.55-9.13-3.55-14.46s1.18-10.16,3.55-14.47c2.36-4.31,5.67-7.67,9.92-10.11,4.25-2.43,9.08-3.65,14.51-3.65s10.27,1.22,14.51,3.65c4.25,2.43,7.55,5.8,9.92,10.11,2.36,4.31,3.55,9.13,3.55,14.47s-1.18,10.16-3.55,14.46ZM565.05,521.57c1.29,2.75,3.12,4.9,5.48,6.46,2.37,1.56,5.11,2.34,8.22,2.34s5.78-.78,8.14-2.34c2.36-1.56,4.19-3.71,5.48-6.46,1.29-2.75,1.93-5.87,1.93-9.35s-.65-6.61-1.93-9.36c-1.29-2.75-3.12-4.9-5.48-6.46-2.37-1.56-5.08-2.34-8.14-2.34s-5.86.78-8.22,2.34c-2.37,1.56-4.19,3.71-5.48,6.46-1.29,2.75-1.94,5.87-1.94,9.36s.65,6.61,1.94,9.35ZM615.2,497.36c2.26-4.25,5.5-7.54,9.71-9.87,4.22-2.33,9.18-3.49,14.88-3.49,4.46,0,8.47.84,12.01,2.54,3.55,1.69,6.41,4.07,8.59,7.13,2.18,3.07,3.51,6.58,3.99,10.54h-11.93c-.75-3.12-2.26-5.59-4.51-7.41-2.26-1.82-5.08-2.73-8.47-2.73-3.12,0-5.83.77-8.14,2.3-2.31,1.53-4.09,3.67-5.32,6.42-1.24,2.75-1.85,5.89-1.85,9.43,0,5.44,1.36,9.83,4.07,13.16,2.71,3.33,6.46,5,11.25,5,3.49,0,6.58-.94,9.27-2.81,2.69-1.88,4.3-4.64,4.84-8.28v-.71h-14.03v-9.43h25.23v30.83h-8.38l-1.29-6.9c-1.67,2.17-3.9,3.94-6.69,5.31-2.79,1.38-6.05,2.06-9.76,2.06-5.32,0-10.01-1.16-14.07-3.49-4.06-2.33-7.2-5.63-9.43-9.91-2.23-4.28-3.35-9.22-3.35-14.82s1.13-10.61,3.39-14.86ZM674.46,484.48h12.09v55.49h-12.09v-55.49ZM705.74,521.89c.21,2.75,1.36,4.95,3.43,6.62,2.07,1.67,4.82,2.5,8.26,2.5,2.85,0,5.17-.59,6.97-1.78,1.8-1.19,2.7-2.84,2.7-4.95,0-1.48-.5-2.66-1.49-3.53-1-.87-2.39-1.56-4.19-2.06-1.8-.5-4.58-1.12-8.34-1.86-3.71-.69-6.83-1.57-9.35-2.66-2.53-1.08-4.58-2.7-6.17-4.83-1.59-2.14-2.38-4.98-2.38-8.52,0-3.22.9-6.1,2.7-8.64,1.8-2.53,4.3-4.53,7.5-5.98,3.2-1.45,6.81-2.18,10.84-2.18s7.86.75,11.17,2.26c3.31,1.51,5.91,3.58,7.82,6.22,1.91,2.64,2.89,5.63,2.94,8.96h-11.85c-.27-2.38-1.29-4.29-3.06-5.74-1.77-1.45-4.11-2.18-7.01-2.18-2.69,0-4.84.56-6.45,1.66-1.61,1.11-2.42,2.7-2.42,4.76,0,1.48.48,2.63,1.45,3.45s2.34,1.48,4.11,1.98c1.77.5,4.51,1.1,8.22,1.78,3.76.69,6.93,1.55,9.51,2.58,2.58,1.03,4.66,2.59,6.25,4.68,1.58,2.09,2.38,4.87,2.38,8.36s-.94,6.41-2.82,9.08c-1.88,2.67-4.5,4.77-7.86,6.3-3.36,1.53-7.14,2.3-11.33,2.3-4.51,0-8.53-.81-12.05-2.42-3.52-1.61-6.28-3.85-8.26-6.7-1.99-2.85-3.01-6.05-3.06-9.59l11.85.16ZM740.73,484.48h44.67v10.23h-16.29v45.26h-12.09v-45.26h-16.29v-10.23ZM792,484.48h12.09v55.49h-12.09v-55.49ZM814.78,497.36c2.23-4.25,5.43-7.54,9.59-9.87,4.16-2.33,9.07-3.49,14.71-3.49,4.41,0,8.36.84,11.85,2.54,3.49,1.69,6.31,4.07,8.47,7.13,2.15,3.07,3.44,6.61,3.87,10.62h-12.09c-.7-3.17-2.16-5.67-4.39-7.49-2.23-1.82-5.01-2.73-8.34-2.73-4.51,0-8.09,1.66-10.72,4.99-2.63,3.33-3.95,7.72-3.95,13.16s1.32,9.76,3.95,13.12c2.63,3.36,6.21,5.03,10.72,5.03,3.33,0,6.11-.91,8.34-2.74,2.23-1.82,3.69-4.32,4.39-7.49h12.09c-.43,4.02-1.72,7.56-3.87,10.62-2.15,3.07-4.97,5.44-8.47,7.13-3.49,1.69-7.44,2.53-11.85,2.53-5.64,0-10.55-1.16-14.71-3.49-4.17-2.33-7.36-5.61-9.59-9.87-2.23-4.25-3.35-9.21-3.35-14.86s1.12-10.61,3.35-14.86ZM879.88,521.89c.21,2.75,1.36,4.95,3.43,6.62,2.07,1.67,4.82,2.5,8.26,2.5,2.85,0,5.17-.59,6.97-1.78,1.8-1.19,2.7-2.84,2.7-4.95,0-1.48-.5-2.66-1.49-3.53-1-.87-2.39-1.56-4.19-2.06-1.8-.5-4.58-1.12-8.34-1.86-3.71-.69-6.83-1.57-9.35-2.66-2.53-1.08-4.58-2.7-6.17-4.83-1.59-2.14-2.38-4.98-2.38-8.52,0-3.22.9-6.1,2.7-8.64,1.8-2.53,4.3-4.53,7.5-5.98,3.2-1.45,6.81-2.18,10.84-2.18s7.86.75,11.17,2.26c3.31,1.51,5.91,3.58,7.82,6.22,1.91,2.64,2.89,5.63,2.94,8.96h-11.85c-.27-2.38-1.29-4.29-3.06-5.74-1.77-1.45-4.11-2.18-7.01-2.18-2.69,0-4.84.56-6.45,1.66-1.61,1.11-2.42,2.7-2.42,4.76,0,1.48.48,2.63,1.45,3.45.97.82,2.34,1.48,4.11,1.98,1.77.5,4.51,1.1,8.22,1.78,3.76.69,6.93,1.55,9.51,2.58,2.58,1.03,4.66,2.59,6.25,4.68,1.58,2.09,2.38,4.87,2.38,8.36s-.94,6.41-2.82,9.08c-1.88,2.67-4.5,4.77-7.86,6.3-3.36,1.53-7.14,2.3-11.33,2.3-4.51,0-8.53-.81-12.05-2.42-3.52-1.61-6.28-3.85-8.26-6.7-1.99-2.85-3.01-6.05-3.06-9.59l11.85.16Z"/>
</svg>