<?xml version="1.0" encoding="UTF-8"?>
<svg id="Layer_1" data-name="Layer 1" xmlns="http://www.w3.org/2000/svg" viewBox="0 0 1500 900">
  <defs>
    <style>
      .cls-1 {
        fill: #fd5e02;
      }

      .cls-2 {
        fill: #f1f5f4;
      }
    </style>
  </defs>
  <path class="cls-2" d="M434.54,625.13v-98.61h68.04v17.75h-49.31v26.13h44.54v17.59h-44.54v37.14h-18.74ZM509.82,604.75c0-14.13,8.55-24.32,27.94-24.32h23.01v-3.12c0-10.52-4.27-16.27-14.96-16.27-9.53,0-14.96,4.27-16.76,15.45l-16.93-2.3c2.3-17.26,12.49-27.94,34.35-27.94s31.88,11.18,31.88,30.9v47.99h-17.59v-19.39h-.33c-3.45,13.81-12.98,21.04-26.3,21.04-14.3,0-24.32-7.23-24.32-22.02ZM540.39,593.57c-8.55,0-13.15,3.12-13.15,8.38s3.45,10.35,13.48,10.35c12.16,0,20.05-6.9,20.05-16.27v-2.47h-20.38ZM607.61,573.19c3.45-20.22,10.35-25.31,22.02-25.31h4.44v19.89h-7.56c-13.81,0-19.23,4.77-19.23,18.24v39.12h-17.75v-77.24h17.75v25.31h.33ZM715.37,578.12c3.12,11.18,5.75,22.85,8.38,34.84h.33c2.47-12,5.42-22.84,8.55-35.17l7.23-29.91h17.59l-23.34,77.24h-21.53l-8.71-33.69c-2.63-10.35-4.77-20.71-6.74-31.39h-.33c-1.97,10.52-4.44,21.2-6.9,31.39l-8.22,33.69h-21.37l-23.5-77.24h18.24l8.22,29.91c3.45,12.16,6.25,23.17,8.71,35.17h.33c2.63-12,5.26-23.67,8.22-34.84l7.72-30.24h19.23l7.89,30.24ZM757.45,604.75c0-14.13,8.55-24.32,27.94-24.32h23.01v-3.12c0-10.52-4.27-16.27-14.96-16.27-9.53,0-14.96,4.27-16.76,15.45l-16.93-2.3c2.3-17.26,12.49-27.94,34.35-27.94s31.88,11.18,31.88,30.9v47.99h-17.59v-19.39h-.33c-3.45,13.81-12.98,21.04-26.3,21.04-14.3,0-24.32-7.23-24.32-22.02ZM788.02,593.57c-8.55,0-13.15,3.12-13.15,8.38s3.45,10.35,13.48,10.35c12.16,0,20.05-6.9,20.05-16.27v-2.47h-20.38ZM829.93,547.88h19.39l10.03,27.94c3.29,8.87,7.4,20.54,11.18,31.06h.33c3.62-10.68,7.56-21.86,10.35-30.73l9.04-28.27h19.06l-31.72,78.07c-7.89,19.39-17.42,27.94-35.17,27.94-4.93,0-8.22-.49-11.83-.99l2.47-16.6c3.45.66,6.57,1.15,9.86,1.15,8.87,0,13.31-1.97,18.24-13.48l-31.23-76.09ZM911.46,574.34c0-16.93,12.33-26.46,33.2-26.46h37.8v14.96h-10.02c-3.78,0-7.56,0-12.82-.33v.16c9.37,1.81,16.6,5.92,16.6,16.27,0,13.64-11.34,20.71-32.38,20.71-4.93,0-9.37-.66-13.31-1.64l-1.64,2.63c-1.15,1.64-1.81,2.63-1.81,3.94,0,2.96,2.14,4.11,6.74,4.11,9.2,0,19.06-.49,27.61-.49,16.44,0,23.34,7.23,23.34,19.23,0,14.46-10.03,22.52-39.28,22.35-30.08.16-38.46-5.92-38.46-15.78,0-6.57,6.41-11.67,18.41-13.31-7.72-.82-11.83-4.44-11.83-10.19,0-3.95,3.45-8.05,9.7-10.19l6.08-2.63c-11.67-3.45-17.91-11.67-17.91-23.34ZM920.82,628.58c0,5.92,4.6,8.05,24.32,8.05,21.04,0,25.47-2.96,25.47-9.2,0-3.45-2.14-6.41-8.55-6.41h-29.58c-8.05,0-11.67,3.78-11.67,7.56ZM927.4,575.33c0,7.72,4.44,12.66,16.6,12.66s16.93-4.77,16.93-12.66-5.59-12.82-17.09-12.82-16.44,5.09-16.44,12.82ZM986.4,586.34c0-25.47,15.78-40.43,39.61-40.43s39.44,14.96,39.44,40.43-14.96,40.92-39.44,40.92-39.61-15.61-39.61-40.92ZM1004.15,586.18c0,14.96,7.72,24.82,21.69,24.82s22.02-9.86,22.02-24.82-8.22-24.16-21.86-24.16-21.86,9.37-21.86,24.16Z"/>
  <path class="cls-1" d="M846.39,316.21h-122.68c-4.84,0-8.76,3.92-8.76,8.76v122.68c0,4.84-3.92,8.76-8.76,8.76h-52.58c-4.84,0-8.76-3.92-8.76-8.76v-81.87c0-9.3,3.69-18.21,10.27-24.78l84.62-84.62c6.57-6.57,15.49-10.27,24.78-10.27h81.87c4.84,0,8.76,3.92,8.76,8.76v52.58c0,4.84-3.92,8.76-8.76,8.76ZM757.48,383.53c-2.76-2.76-7.48-.81-7.48,3.1v61.03c0,4.84,3.92,8.76,8.76,8.76h61.02c3.9,0,5.86-4.72,3.1-7.48l-65.41-65.41ZM846.39,351.26h-61.03c-3.9,0-5.86,4.72-3.1,7.48l65.41,65.41c2.76,2.76,7.48.81,7.48-3.1v-61.03c0-4.84-3.93-8.76-8.76-8.76Z"/>
</svg>