<?xml version="1.0" encoding="UTF-8"?>
<svg id="Layer_1" data-name="Layer 1" xmlns="http://www.w3.org/2000/svg" viewBox="0 0 1500 900">
  <defs>
    <style>
      .cls-1 {
        fill: #023341;
      }

      .cls-2 {
        fill: #fd5e02;
      }
    </style>
  </defs>
  <path class="cls-1" d="M434.54,608.24v-98.61h68.04v17.75h-49.31v26.13h44.54v17.59h-44.54v37.14h-18.74ZM509.82,587.86c0-14.13,8.55-24.32,27.94-24.32h23.01v-3.12c0-10.52-4.27-16.27-14.96-16.27-9.53,0-14.96,4.27-16.76,15.45l-16.93-2.3c2.3-17.26,12.49-27.94,34.35-27.94s31.88,11.18,31.88,30.9v47.99h-17.59v-19.39h-.33c-3.45,13.81-12.98,21.04-26.3,21.04-14.3,0-24.32-7.23-24.32-22.02ZM540.39,576.68c-8.55,0-13.15,3.12-13.15,8.38s3.45,10.35,13.48,10.35c12.16,0,20.05-6.9,20.05-16.27v-2.47h-20.38ZM607.61,556.31c3.45-20.22,10.35-25.31,22.02-25.31h4.44v19.89h-7.56c-13.81,0-19.23,4.77-19.23,18.24v39.12h-17.75v-77.24h17.75v25.31h.33ZM715.37,561.24c3.12,11.18,5.75,22.85,8.38,34.84h.33c2.47-12,5.42-22.84,8.55-35.17l7.23-29.91h17.59l-23.34,77.24h-21.53l-8.71-33.69c-2.63-10.35-4.77-20.71-6.74-31.39h-.33c-1.97,10.52-4.44,21.2-6.9,31.39l-8.22,33.69h-21.37l-23.5-77.24h18.24l8.22,29.91c3.45,12.16,6.25,23.17,8.71,35.17h.33c2.63-12,5.26-23.67,8.22-34.84l7.72-30.24h19.23l7.89,30.24ZM757.45,587.86c0-14.13,8.55-24.32,27.94-24.32h23.01v-3.12c0-10.52-4.27-16.27-14.96-16.27-9.53,0-14.96,4.27-16.76,15.45l-16.93-2.3c2.3-17.26,12.49-27.94,34.35-27.94s31.88,11.18,31.88,30.9v47.99h-17.59v-19.39h-.33c-3.45,13.81-12.98,21.04-26.3,21.04-14.3,0-24.32-7.23-24.32-22.02ZM788.02,576.68c-8.55,0-13.15,3.12-13.15,8.38s3.45,10.35,13.48,10.35c12.16,0,20.05-6.9,20.05-16.27v-2.47h-20.38ZM829.93,530.99h19.39l10.03,27.94c3.29,8.87,7.4,20.54,11.18,31.06h.33c3.62-10.68,7.56-21.86,10.35-30.73l9.04-28.27h19.06l-31.72,78.07c-7.89,19.39-17.42,27.94-35.17,27.94-4.93,0-8.22-.49-11.83-.99l2.47-16.6c3.45.66,6.57,1.15,9.86,1.15,8.87,0,13.31-1.97,18.24-13.48l-31.23-76.09ZM911.46,557.46c0-16.93,12.33-26.46,33.2-26.46h37.8v14.96h-10.02c-3.78,0-7.56,0-12.82-.33v.16c9.37,1.81,16.6,5.92,16.6,16.27,0,13.64-11.34,20.71-32.38,20.71-4.93,0-9.37-.66-13.31-1.64l-1.64,2.63c-1.15,1.64-1.81,2.63-1.81,3.94,0,2.96,2.14,4.11,6.74,4.11,9.2,0,19.06-.49,27.61-.49,16.44,0,23.34,7.23,23.34,19.23,0,14.46-10.03,22.52-39.28,22.35-30.08.16-38.46-5.92-38.46-15.78,0-6.57,6.41-11.67,18.41-13.31-7.72-.82-11.83-4.44-11.83-10.19,0-3.95,3.45-8.05,9.7-10.19l6.08-2.63c-11.67-3.45-17.91-11.67-17.91-23.34ZM920.82,611.69c0,5.92,4.6,8.05,24.32,8.05,21.04,0,25.47-2.96,25.47-9.2,0-3.45-2.14-6.41-8.55-6.41h-29.58c-8.05,0-11.67,3.78-11.67,7.56ZM927.4,558.44c0,7.72,4.44,12.66,16.6,12.66s16.93-4.77,16.93-12.66-5.59-12.82-17.09-12.82-16.44,5.09-16.44,12.82ZM986.4,569.45c0-25.47,15.78-40.43,39.61-40.43s39.44,14.96,39.44,40.43-14.96,40.92-39.44,40.92-39.61-15.61-39.61-40.92ZM1004.15,569.29c0,14.96,7.72,24.82,21.69,24.82s22.02-9.86,22.02-24.82-8.22-24.16-21.86-24.16-21.86,9.37-21.86,24.16Z"/>
  <path class="cls-2" d="M846.39,299.32h-122.68c-4.84,0-8.76,3.92-8.76,8.76v122.68c0,4.84-3.92,8.76-8.76,8.76h-52.58c-4.84,0-8.76-3.92-8.76-8.76v-81.87c0-9.3,3.69-18.21,10.27-24.78l84.62-84.62c6.57-6.57,15.49-10.27,24.78-10.27h81.87c4.84,0,8.76,3.92,8.76,8.76v52.58c0,4.84-3.92,8.76-8.76,8.76ZM757.48,366.64c-2.76-2.76-7.48-.81-7.48,3.1v61.03c0,4.84,3.92,8.76,8.76,8.76h61.02c3.9,0,5.86-4.72,3.1-7.48l-65.41-65.41ZM846.39,334.38h-61.03c-3.9,0-5.86,4.72-3.1,7.48l65.41,65.41c2.76,2.76,7.48.81,7.48-3.1v-61.03c0-4.84-3.93-8.76-8.76-8.76Z"/>
  <path class="cls-2" d="M434.54,670.35v-49.43h10.77v40.32h19.97v9.11h-30.74ZM512.05,658.52c-2.11,3.84-5.05,6.84-8.84,9-3.78,2.17-8.09,3.25-12.93,3.25s-9.15-1.08-12.93-3.25c-3.78-2.17-6.73-5.17-8.84-9-2.11-3.84-3.16-8.13-3.16-12.89s1.05-9.05,3.16-12.89c2.11-3.84,5.05-6.84,8.84-9,3.78-2.17,8.09-3.25,12.93-3.25s9.15,1.08,12.93,3.25c3.78,2.17,6.73,5.17,8.84,9,2.11,3.84,3.16,8.13,3.16,12.89s-1.05,9.05-3.16,12.89ZM478.07,653.97c1.15,2.45,2.78,4.37,4.88,5.75,2.11,1.39,4.55,2.08,7.33,2.08s5.15-.69,7.26-2.08c2.11-1.39,3.73-3.31,4.88-5.75,1.15-2.45,1.72-5.23,1.72-8.33s-.57-5.89-1.72-8.33c-1.15-2.45-2.78-4.37-4.88-5.75-2.11-1.39-4.53-2.08-7.26-2.08s-5.22.69-7.33,2.08c-2.11,1.39-3.73,3.31-4.88,5.75-1.15,2.45-1.72,5.23-1.72,8.33s.57,5.89,1.72,8.33ZM522.75,632.4c2.01-3.79,4.9-6.72,8.65-8.79,3.76-2.07,8.18-3.11,13.25-3.11,3.97,0,7.54.75,10.7,2.26,3.16,1.51,5.71,3.63,7.65,6.35,1.94,2.73,3.12,5.86,3.56,9.39h-10.63c-.67-2.78-2.01-4.98-4.02-6.6-2.01-1.62-4.53-2.43-7.54-2.43-2.78,0-5.2.68-7.25,2.05-2.06,1.37-3.64,3.27-4.74,5.72-1.1,2.45-1.65,5.25-1.65,8.41,0,4.85,1.21,8.76,3.63,11.72,2.42,2.97,5.76,4.45,10.02,4.45,3.11,0,5.87-.84,8.26-2.51,2.39-1.67,3.83-4.13,4.31-7.38v-.63h-12.5v-8.4h22.48v27.47h-7.47l-1.15-6.14c-1.48,1.93-3.47,3.51-5.96,4.73-2.49,1.23-5.39,1.84-8.69,1.84-4.74,0-8.92-1.03-12.53-3.11-3.62-2.07-6.42-5.01-8.4-8.83-1.99-3.81-2.98-8.21-2.98-13.2s1.01-9.45,3.02-13.24ZM575.54,620.92h10.77v49.43h-10.77v-49.43ZM603.41,654.25c.19,2.45,1.21,4.41,3.05,5.9,1.84,1.48,4.3,2.23,7.36,2.23,2.54,0,4.61-.53,6.21-1.59,1.6-1.06,2.41-2.53,2.41-4.41,0-1.32-.44-2.37-1.33-3.14-.89-.78-2.13-1.39-3.74-1.84s-4.08-1-7.43-1.66c-3.3-.61-6.08-1.4-8.33-2.37-2.25-.96-4.08-2.4-5.49-4.31-1.41-1.91-2.12-4.44-2.12-7.59,0-2.87.8-5.44,2.41-7.7,1.6-2.26,3.83-4.04,6.68-5.33,2.85-1.29,6.07-1.94,9.66-1.94s7,.67,9.95,2.01,5.27,3.19,6.97,5.54c1.7,2.36,2.57,5.01,2.62,7.98h-10.56c-.24-2.12-1.15-3.82-2.73-5.12-1.58-1.3-3.66-1.94-6.25-1.94-2.4,0-4.31.5-5.75,1.48-1.44.99-2.15,2.4-2.15,4.24,0,1.32.43,2.34,1.29,3.07s2.08,1.32,3.66,1.76c1.58.45,4.02.98,7.33,1.59,3.35.61,6.18,1.38,8.48,2.3,2.3.92,4.15,2.31,5.57,4.17,1.41,1.86,2.12,4.34,2.12,7.45s-.84,5.71-2.51,8.09c-1.68,2.38-4.01,4.25-7,5.61-2.99,1.36-6.36,2.05-10.09,2.05-4.02,0-7.6-.72-10.74-2.15-3.14-1.44-5.59-3.43-7.36-5.97-1.77-2.54-2.68-5.39-2.73-8.54l10.56.14ZM634.59,620.92h39.79v9.11h-14.51v40.32h-10.77v-40.32h-14.51v-9.11ZM680.27,620.92h10.77v49.43h-10.77v-49.43ZM700.56,632.4c1.99-3.79,4.84-6.72,8.55-8.79,3.71-2.07,8.08-3.11,13.11-3.11,3.93,0,7.45.75,10.56,2.26,3.11,1.51,5.63,3.63,7.54,6.35,1.91,2.73,3.06,5.89,3.45,9.46h-10.77c-.62-2.82-1.93-5.05-3.91-6.67-1.99-1.62-4.47-2.43-7.43-2.43-4.02,0-7.21,1.48-9.55,4.45-2.35,2.97-3.52,6.87-3.52,11.72s1.17,8.7,3.52,11.69c2.35,2.99,5.53,4.49,9.55,4.49,2.97,0,5.45-.81,7.43-2.44,1.99-1.62,3.29-3.85,3.91-6.67h10.77c-.38,3.58-1.53,6.73-3.45,9.46-1.92,2.73-4.43,4.85-7.54,6.36-3.11,1.51-6.63,2.26-10.56,2.26-5.03,0-9.4-1.03-13.11-3.11-3.71-2.07-6.56-5-8.55-8.79-1.99-3.79-2.98-8.2-2.98-13.24s.99-9.45,2.98-13.24ZM758.57,654.25c.19,2.45,1.21,4.41,3.05,5.9,1.84,1.48,4.3,2.23,7.36,2.23,2.54,0,4.61-.53,6.21-1.59,1.6-1.06,2.41-2.53,2.41-4.41,0-1.32-.44-2.37-1.33-3.14-.89-.78-2.13-1.39-3.74-1.84s-4.08-1-7.43-1.66c-3.3-.61-6.08-1.4-8.33-2.37-2.25-.96-4.08-2.4-5.49-4.31-1.41-1.91-2.12-4.44-2.12-7.59,0-2.87.8-5.44,2.41-7.7,1.6-2.26,3.83-4.04,6.68-5.33,2.85-1.29,6.07-1.94,9.66-1.94s7,.67,9.95,2.01,5.27,3.19,6.97,5.54c1.7,2.36,2.57,5.01,2.62,7.98h-10.56c-.24-2.12-1.15-3.82-2.73-5.12-1.58-1.3-3.66-1.94-6.25-1.94-2.4,0-4.31.5-5.75,1.48-1.44.99-2.15,2.4-2.15,4.24,0,1.32.43,2.34,1.29,3.07s2.08,1.32,3.66,1.76c1.58.45,4.02.98,7.33,1.59,3.35.61,6.18,1.38,8.48,2.3,2.3.92,4.15,2.31,5.57,4.17,1.41,1.86,2.12,4.34,2.12,7.45s-.84,5.71-2.51,8.09c-1.68,2.38-4.01,4.25-7,5.61-2.99,1.36-6.36,2.05-10.09,2.05-4.02,0-7.6-.72-10.74-2.15-3.14-1.44-5.59-3.43-7.36-5.97-1.77-2.54-2.68-5.39-2.73-8.54l10.56.14Z"/>
</svg>