<?xml version="1.0" encoding="UTF-8"?>
<svg id="Layer_1" data-name="Layer 1" xmlns="http://www.w3.org/2000/svg" viewBox="0 0 1500 900">
  <defs>
    <style>
      .cls-1 {
        fill: #023341;
      }

      .cls-2 {
        fill: #fd5e02;
      }

      .cls-3 {
        fill: #fcf5e3;
      }
    </style>
  </defs>
  <rect class="cls-3" width="1500" height="900"/>
  <g>
    <path class="cls-2" d="M1143.1,411.76h-108.79c-4.29,0-7.77,3.48-7.77,7.77v108.79c0,4.29-3.48,7.77-7.77,7.77h-46.63c-4.29,0-7.77-3.48-7.77-7.77v-72.61c0-8.24,3.27-16.15,9.1-21.98l75.04-75.04c5.83-5.83,13.74-9.1,21.98-9.1h72.61c4.29,0,7.77,3.48,7.77,7.77v46.63c0,4.29-3.48,7.77-7.77,7.77ZM1064.25,471.46c-2.45-2.45-6.63-.71-6.63,2.75v54.12c0,4.29,3.48,7.77,7.77,7.77h54.12c3.46,0,5.2-4.19,2.75-6.63l-58-58.01ZM1143.1,442.85h-54.12c-3.46,0-5.2,4.19-2.75,6.63l58.01,58.01c2.45,2.45,6.63.71,6.63-2.75v-54.12c0-4.29-3.48-7.77-7.77-7.77Z"/>
    <g>
      <path class="cls-2" d="M765.56,501.82h-7.44v-6.58h7.44v6.58ZM755.06,495.25h-7.44v6.58h7.44v-6.58ZM833.24,548.39h7.73v-6.58h-7.73v6.58ZM844.32,508.78c-2.39-1.1-5.16-1.64-8.31-1.64-1.65,0-3.34.14-5.05.4-1.71.27-3.4.6-5.05.98l.75,6.12c1.81-.27,3.48-.47,5.02-.61,1.54-.13,2.75-.2,3.64-.2,3.12,0,5.39.6,6.84,1.79,1.44,1.19,2.16,2.94,2.16,5.25v8.54h-28.33v-9.17c0-.88-.1-2.09-.29-3.61-.19-1.52-.41-3.13-.66-4.85-.25-1.71-.51-3.26-.78-4.64l-7.62,1.15c.35,1.65.64,3.28.89,4.88.25,1.6.44,3.02.58,4.27.13,1.25.2,2.18.2,2.8v9.17h-6.81c-.73,0-1.43-.14-2.11-.43-.39-.17-.79-.39-1.21-.67.52-1.89.78-4.15.78-6.8v-11.37h-7.73v11.37c0,2.27-.13,3.97-.38,5.11-.25,1.14-.7,1.89-1.36,2.25-.65.37-1.6.55-2.83.55h-4.67v-16.39h-7.73v16.39h-13.91v-22.27h-7.67v22.27h-15.23v-5.77c0-1.92-.25-3.77-.75-5.54-.5-1.77-1.28-3.37-2.34-4.79-1.06-1.42-2.45-2.54-4.18-3.35-1.73-.81-3.83-1.21-6.29-1.21h-9.06l1.38-2.6c.35-.73.73-1.46,1.15-2.19.42-.73.94-1.59,1.56-2.57.61-.98,1.42-2.22,2.42-3.72l-6.46-3.64c-1.08,1.62-1.96,2.96-2.65,4.04-.69,1.08-1.25,2-1.67,2.77-.42.77-.81,1.48-1.15,2.13l-2.94,5.54,4.79,6.92h12.64c1.31,0,2.39.27,3.26.81.87.54,1.51,1.4,1.93,2.6.42,1.19.63,2.79.63,4.79v5.77h-32.49v-9.17c0-.88-.09-2.09-.26-3.61-.17-1.52-.39-3.13-.66-4.85-.27-1.71-.54-3.26-.81-4.64l-7.56,1.15c.31,1.65.58,3.28.81,4.88.23,1.6.42,3.02.58,4.27.15,1.25.23,2.18.23,2.8v9.17h-6.81c-.69,0-1.39-.14-2.11-.43-.39-.16-.79-.37-1.18-.63.54-1.9.81-4.17.81-6.84v-11.37h-7.73v11.37c0,2.27-.14,3.97-.4,5.11-.27,1.14-.73,1.89-1.38,2.25-.65.37-1.6.55-2.83.55h-4.67v-16.39h-7.73v23.6c0,1.35-.3,2.56-.89,3.64-.6,1.08-1.55,1.92-2.86,2.54-1.31.61-3.02.92-5.14.92s-3.78-.32-5.22-.95c-1.44-.63-2.55-1.51-3.32-2.63-.77-1.12-1.15-2.44-1.15-3.98,0-.69.08-1.79.23-3.29.15-1.5.38-3.32.66-5.45.29-2.13.64-4.49,1.07-7.07l-7.62-1.04c-.23,1.54-.47,3.13-.72,4.76-.25,1.64-.48,3.24-.69,4.82-.21,1.58-.38,3-.49,4.27-.12,1.27-.17,2.29-.17,3.06,0,2.73.75,5.17,2.25,7.33,1.5,2.15,3.57,3.84,6.2,5.05,2.63,1.21,5.63,1.82,8.97,1.82s6.04-.57,8.54-1.7c2.5-1.13,4.47-2.74,5.91-4.82,1.44-2.08,2.16-4.5,2.16-7.27v-.52h4.67c2.85,0,5.17-.5,6.98-1.5.3-.17.59-.36.87-.56.74.47,1.51.86,2.31,1.16,1.54.6,3.1.89,4.67.89h103.92c2.85,0,5.17-.5,6.98-1.5.3-.16.58-.35.85-.55.73.46,1.5.85,2.3,1.15,1.56.6,3.12.89,4.7.89h50.49v-15.23c0-2.88-.68-5.35-2.05-7.39-1.37-2.04-3.24-3.61-5.63-4.7ZM902.2,495.3v40.79h-20.31v1.67c0,2.62-.64,4.88-1.93,6.78-1.29,1.9-3.1,3.36-5.42,4.36-2.33,1-5.07,1.5-8.22,1.5-1.42,0-2.91-.11-4.47-.32-1.56-.21-3.22-.49-4.99-.84l1.15-6.17c1.92.23,3.56.4,4.9.52,1.35.12,2.48.17,3.4.17,2.77,0,4.77-.5,6-1.5,1.23-1,1.85-2.5,1.85-4.5v-1.67h-5.31c-3.27,0-5.96-.52-8.08-1.56-2.12-1.04-3.68-2.62-4.7-4.73-1.02-2.11-1.53-4.79-1.53-8.02s.51-5.93,1.53-8.11c1.02-2.17,2.59-3.81,4.7-4.9,2.12-1.1,4.81-1.64,8.08-1.64h13.04v22.27h12.58v-34.1h7.73ZM874.15,529.4v-15.58h-5.31c-1.58,0-2.85.18-3.81.55-.96.37-1.66,1.12-2.11,2.25-.44,1.14-.66,2.86-.66,5.16s.2,3.84.61,4.93c.4,1.1,1.09,1.82,2.05,2.16.96.35,2.27.52,3.92.52h5.31Z"/>
      <path class="cls-1" d="M468.21,384.63c-9.1.05-16.38,1.6-21.83,4.65-7.5,4.3-11.26,11.21-11.26,20.71,0,6.35,1.8,11.48,5.4,15.38,4.6,5,11.93,7.5,21.98,7.5h18.76c-.5,2.95-1.53,5.2-3.08,6.75-1.95,1.95-4.83,2.93-8.63,2.93h-53.57v-14.41c0-10.96-1.9-19.76-5.7-26.41-5.55-9.45-14.73-14.18-27.54-14.18-6.35.05-11.98,1.5-16.88,4.35-4.7,2.65-8.48,6.48-11.33,11.48-3.6,6.25-5.4,13.33-5.4,21.23,0,11.06,3.38,19.96,10.13,26.71,6.15,6.15,13.93,9.23,23.33,9.23h13.21c-1.2,3.45-2.88,6.05-5.03,7.8-3.35,3-7.85,4.5-13.51,4.5-9.75-.05-18.73-2.68-26.94-7.88l8.93,20.18c2.35,1.15,4.9,2.13,7.65,2.93,5.35,1.4,10.28,2.1,14.78,2.1,6.75,0,12.86-1.58,18.31-4.73,5-2.9,8.88-6.95,11.63-12.16,1.7-2.95,3-7.2,3.9-12.76h54.62c9.4,0,16.88-2.45,22.43-7.35,5.75-5.15,8.63-12.28,8.63-21.38v-23.79c0-5.85-1.8-10.73-5.4-14.63-5.5-5.85-14.71-8.78-27.61-8.78ZM396.32,433.7v8.85h-13.73c-3.35,0-6.2-1.08-8.55-3.23-3.4-3.25-5.1-8.1-5.1-14.56,0-5.75,1.32-10.53,3.98-14.33,2.55-3.55,5.78-5.33,9.68-5.33,3.4,0,6.28,1.38,8.63,4.13,2.8,3.1,4.45,7.25,4.95,12.46.1,1.2.15,3.5.15,6.9v5.1ZM481.41,419.22h-14.93c-2.65,0-4.95-.35-6.9-1.05-3.5-1.45-5.25-4.08-5.25-7.88,0-3.3,1.45-5.75,4.35-7.35,2.35-1.35,5.53-2.03,9.53-2.03,3.35.05,6,.53,7.95,1.43,2.2.9,3.7,2.48,4.5,4.73.5,1.25.75,3.88.75,7.88v4.28ZM446.97,367.75c-2.15-2.15-3.23-4.65-3.23-7.5s1.08-5.38,3.23-7.58c2.05-2.05,4.5-3.08,7.35-3.08s5.23,1.03,7.43,3.08c2.15,2.15,3.23,4.68,3.23,7.58s-1.08,5.3-3.23,7.35c-2.15,2.15-4.63,3.23-7.43,3.23s-5.2-1.02-7.35-3.08ZM474.66,367.75c-2.15-2.15-3.23-4.65-3.23-7.5s1.08-5.38,3.23-7.58c2.05-2.05,4.5-3.08,7.35-3.08s5.2,1.03,7.35,3.08c2.15,2.15,3.23,4.68,3.23,7.58s-1.08,5.3-3.23,7.35c-2.15,2.15-4.6,3.23-7.35,3.23s-5.2-1.02-7.35-3.08ZM553.01,506.94c2.15,2.15,3.23,4.68,3.23,7.58s-1.08,5.3-3.23,7.35c-2.15,2.15-4.63,3.23-7.43,3.23s-5.2-1.03-7.35-3.08c-2.15-2.15-3.23-4.65-3.23-7.5s1.08-5.38,3.23-7.58c2.05-2.05,4.5-3.05,7.35-3,2.75,0,5.23,1,7.43,3ZM567.12,418.77v4.58h35.79v32.94c0,8-2.7,14.76-8.1,20.26-4.4,4.6-10.31,8.13-17.71,10.58-5.95,1.85-12.26,2.78-18.91,2.78-13.96,0-25.01-4.15-33.16-12.46-5.55-5.55-9.55-12.83-12.01-21.83-.95-3.35-1.88-8.5-2.78-15.46l18.61-6.15c.2,6.85.72,12.08,1.58,15.68,1.65,7.8,4.78,13.43,9.38,16.88,4.3,3.05,10.23,4.58,17.78,4.58,6.75,0,12.28-1.23,16.58-3.68,2.75-1.55,4.9-3.55,6.45-6,1.65-2.55,2.48-5.35,2.48-8.4v-12.61h-35.94v-19.81c0-10.45,3.18-18.56,9.53-24.31,5.3-4.8,12.31-7.2,21.01-7.2,6.25,0,11.86,1.18,16.81,3.53,3.05,1.55,6.23,3.8,9.53,6.75l-7.13,17.33c-2.95-4-5.75-6.8-8.4-8.4-2.75-1.75-5.88-2.63-9.38-2.63s-6.18,1.03-8.33,3.08c-2.45,2.55-3.68,5.88-3.68,9.98ZM580.63,506.94c2.15,2.15,3.23,4.68,3.23,7.58s-1.08,5.3-3.23,7.35c-2.15,2.15-4.6,3.23-7.35,3.23s-5.2-1.03-7.35-3.08c-2.15-2.15-3.23-4.65-3.23-7.5s1.08-5.38,3.23-7.58c2.05-2.05,4.5-3.05,7.35-3,2.75,0,5.2,1,7.35,3ZM613.08,366.25l19.96-6.45v100.77h-19.96v-94.32ZM674.43,387.56c-6.35.05-11.98,1.5-16.88,4.35-4.7,2.65-8.48,6.48-11.33,11.48-3.6,6.15-5.4,13.23-5.4,21.23,0,5.55.93,10.73,2.78,15.53,1.8,4.65,4.4,8.73,7.8,12.23,6.05,6.15,14.11,9.23,24.16,9.23,4.1,0,8.25-.93,12.46-2.78-.55,2-1.03,3.45-1.43,4.35-.9,2-2.23,3.73-3.98,5.18-3.35,3-7.95,4.5-13.81,4.5-9.65-.05-18.58-2.68-26.79-7.88l8.93,20.18c2.35,1.15,4.9,2.13,7.65,2.93,5.35,1.4,10.28,2.1,14.78,2.1,4.1.05,8.1-.55,12.01-1.8,5.4-1.85,9.95-4.78,13.66-8.78,3.55-4,5.9-8.5,7.05-13.51,1.05-4.25,1.58-10.06,1.58-17.41v-19.66c-.05-27.66-11.13-41.49-33.24-41.49ZM684.11,438.58c-2.55,3.6-5.88,5.4-9.98,5.4-3.05,0-5.75-1.17-8.1-3.53-3.6-3.6-5.4-8.83-5.4-15.68,0-5.75,1.32-10.53,3.98-14.33,2.55-3.55,5.78-5.33,9.68-5.33,3.6,0,6.68,1.58,9.23,4.73,3,3.8,4.5,8.78,4.5,14.93-.05,5.6-1.35,10.2-3.9,13.81ZM766.06,394.46l19.88-6.45v65.95c0,10.25-2.88,18.51-8.63,24.76-3.9,4.3-8.88,7.43-14.93,9.38-4.3,1.45-8.6,2.15-12.91,2.1-4.3,0-8.95-.7-13.96-2.1-2.55-.8-5-1.78-7.35-2.93l-8.93-20.18c8.1,5.2,16.61,7.83,25.51,7.88,6.15,0,11.15-1.95,15.01-5.85,4.2-4.1,6.3-9.63,6.3-16.58v-55.97ZM877.85,367.75c-2.15-2.15-3.23-4.65-3.23-7.5s1.08-5.38,3.23-7.58c2.05-2.05,4.5-3.08,7.35-3.08s5.23,1.03,7.43,3.08c2.15,2.15,3.23,4.68,3.23,7.58s-1.08,5.3-3.23,7.35c-2.15,2.15-4.63,3.23-7.43,3.23s-5.2-1.02-7.35-3.08ZM896.8,393.41c-5.5-5.85-14.71-8.78-27.61-8.78-9.1.05-16.38,1.6-21.83,4.65-7.5,4.3-11.26,11.21-11.26,20.71,0,6.35,1.8,11.48,5.4,15.38,4.6,5,11.93,7.5,21.98,7.5h18.76c-.5,2.95-1.53,5.2-3.08,6.75-1.95,1.95-4.83,2.93-8.63,2.93h-50.95c-2.15,0-3.73-.45-4.73-1.35-1.25-1.15-1.88-3-1.88-5.55v-75.86l-19.96,6.45v72.48c0,6.35,1.73,11.48,5.18,15.38,3.9,4.3,9.6,6.45,17.11,6.45h55.82c9.4,0,16.88-2.45,22.43-7.35,5.75-5.15,8.63-12.28,8.63-21.38v-23.79c0-5.85-1.8-10.73-5.4-14.63ZM882.39,419.22h-14.93c-2.65,0-4.95-.35-6.9-1.05-3.5-1.45-5.25-4.08-5.25-7.88,0-3.3,1.45-5.75,4.35-7.35,2.35-1.35,5.53-2.03,9.53-2.03,3.35.05,6,.53,7.95,1.43,2.2.9,3.7,2.48,4.5,4.73.5,1.25.75,3.88.75,7.88v4.28Z"/>
    </g>
  </g>
</svg>