<?xml version="1.0" encoding="UTF-8"?>
<svg id="Layer_1" data-name="Layer 1" xmlns="http://www.w3.org/2000/svg" viewBox="0 0 1500 900">
  <defs>
    <style>
      .cls-1 {
        fill: #fd5e02;
      }

      .cls-2 {
        fill: #fcf5e3;
      }
    </style>
  </defs>
  <rect class="cls-1" x="-.26" width="1500" height="900"/>
  <g>
    <path class="cls-2" d="M1136.22,420.75h-102.38c-4.04,0-7.31,3.27-7.31,7.31v102.38c0,4.04-3.27,7.31-7.31,7.31h-43.88c-4.04,0-7.31-3.27-7.31-7.31v-68.32c0-7.76,3.08-15.2,8.57-20.68l70.62-70.62c5.49-5.49,12.93-8.57,20.68-8.57h68.32c4.04,0,7.31,3.27,7.31,7.31v43.88c0,4.04-3.27,7.31-7.31,7.31ZM1062.03,476.92c-2.3-2.3-6.24-.67-6.24,2.59v50.93c0,4.04,3.27,7.31,7.31,7.31h50.93c3.26,0,4.89-3.94,2.59-6.24l-54.58-54.58ZM1136.22,450h-50.93c-3.26,0-4.89,3.94-2.59,6.24l54.58,54.58c2.3,2.3,6.24.67,6.24-2.59v-50.93c0-4.04-3.28-7.31-7.31-7.31Z"/>
    <path class="cls-2" d="M475.54,397.29c-9.1.05-16.38,1.6-21.83,4.65-7.5,4.3-11.26,11.21-11.26,20.71,0,6.35,1.8,11.48,5.4,15.38,4.6,5,11.93,7.5,21.98,7.5h18.76c-.5,2.95-1.53,5.2-3.08,6.75-1.95,1.95-4.83,2.93-8.63,2.93h-53.57v-14.41c0-10.96-1.9-19.76-5.7-26.41-5.55-9.45-14.73-14.18-27.54-14.18-6.35.05-11.98,1.5-16.88,4.35-4.7,2.65-8.48,6.48-11.33,11.48-3.6,6.25-5.4,13.33-5.4,21.23,0,11.06,3.38,19.96,10.13,26.71,6.15,6.15,13.93,9.23,23.33,9.23h13.21c-1.2,3.45-2.88,6.05-5.03,7.8-3.35,3-7.85,4.5-13.51,4.5-9.75-.05-18.73-2.68-26.94-7.88l8.93,20.18c2.35,1.15,4.9,2.13,7.65,2.93,5.35,1.4,10.28,2.1,14.78,2.1,6.75,0,12.86-1.58,18.31-4.73,5-2.9,8.88-6.95,11.63-12.16,1.7-2.95,3-7.2,3.9-12.76h54.62c9.4,0,16.88-2.45,22.43-7.35,5.75-5.15,8.63-12.28,8.63-21.38v-23.79c0-5.85-1.8-10.73-5.4-14.63-5.5-5.85-14.71-8.78-27.61-8.78ZM403.66,446.36v8.85h-13.73c-3.35,0-6.2-1.08-8.55-3.23-3.4-3.25-5.1-8.1-5.1-14.56,0-5.75,1.32-10.53,3.98-14.33,2.55-3.55,5.78-5.33,9.68-5.33,3.4,0,6.28,1.38,8.63,4.13,2.8,3.1,4.45,7.25,4.95,12.46.1,1.2.15,3.5.15,6.9v5.1ZM488.75,431.88h-14.93c-2.65,0-4.95-.35-6.9-1.05-3.5-1.45-5.25-4.08-5.25-7.88,0-3.3,1.45-5.75,4.35-7.35,2.35-1.35,5.53-2.03,9.53-2.03,3.35.05,6,.53,7.95,1.43,2.2.9,3.7,2.48,4.5,4.73.5,1.25.75,3.88.75,7.88v4.28ZM454.31,380.41c-2.15-2.15-3.23-4.65-3.23-7.5s1.08-5.38,3.23-7.58c2.05-2.05,4.5-3.08,7.35-3.08s5.23,1.03,7.43,3.08c2.15,2.15,3.23,4.68,3.23,7.58s-1.08,5.3-3.23,7.35c-2.15,2.15-4.63,3.23-7.43,3.23s-5.2-1.02-7.35-3.08ZM481.99,380.41c-2.15-2.15-3.23-4.65-3.23-7.5s1.08-5.38,3.23-7.58c2.05-2.05,4.5-3.08,7.35-3.08s5.2,1.03,7.35,3.08c2.15,2.15,3.23,4.68,3.23,7.58s-1.08,5.3-3.23,7.35c-2.15,2.15-4.6,3.23-7.35,3.23s-5.2-1.02-7.35-3.08ZM560.35,519.59c2.15,2.15,3.23,4.68,3.23,7.58s-1.08,5.3-3.23,7.35c-2.15,2.15-4.63,3.23-7.43,3.23s-5.2-1.03-7.35-3.08c-2.15-2.15-3.23-4.65-3.23-7.5s1.08-5.38,3.23-7.58c2.05-2.05,4.5-3.05,7.35-3,2.75,0,5.23,1,7.43,3ZM574.46,431.43v4.58h35.79v32.94c0,8-2.7,14.76-8.1,20.26-4.4,4.6-10.31,8.13-17.71,10.58-5.95,1.85-12.26,2.78-18.91,2.78-13.96,0-25.01-4.15-33.16-12.46-5.55-5.55-9.55-12.83-12.01-21.83-.95-3.35-1.88-8.5-2.78-15.46l18.61-6.15c.2,6.85.72,12.08,1.58,15.68,1.65,7.8,4.78,13.43,9.38,16.88,4.3,3.05,10.23,4.58,17.78,4.58,6.75,0,12.28-1.23,16.58-3.68,2.75-1.55,4.9-3.55,6.45-6,1.65-2.55,2.48-5.35,2.48-8.4v-12.61h-35.94v-19.81c0-10.45,3.18-18.56,9.53-24.31,5.3-4.8,12.31-7.2,21.01-7.2,6.25,0,11.86,1.18,16.81,3.53,3.05,1.55,6.23,3.8,9.53,6.75l-7.13,17.33c-2.95-4-5.75-6.8-8.4-8.4-2.75-1.75-5.88-2.63-9.38-2.63s-6.18,1.03-8.33,3.08c-2.45,2.55-3.68,5.88-3.68,9.98ZM587.96,519.59c2.15,2.15,3.23,4.68,3.23,7.58s-1.08,5.3-3.23,7.35c-2.15,2.15-4.6,3.23-7.35,3.23s-5.2-1.03-7.35-3.08c-2.15-2.15-3.23-4.65-3.23-7.5s1.08-5.38,3.23-7.58c2.05-2.05,4.5-3.05,7.35-3,2.75,0,5.2,1,7.35,3ZM620.42,378.91l19.96-6.45v100.77h-19.96v-94.32ZM681.77,400.22c-6.35.05-11.98,1.5-16.88,4.35-4.7,2.65-8.48,6.48-11.33,11.48-3.6,6.15-5.4,13.23-5.4,21.23,0,5.55.93,10.73,2.78,15.53,1.8,4.65,4.4,8.73,7.8,12.23,6.05,6.15,14.11,9.23,24.16,9.23,4.1,0,8.25-.93,12.46-2.78-.55,2-1.03,3.45-1.43,4.35-.9,2-2.23,3.73-3.98,5.18-3.35,3-7.95,4.5-13.81,4.5-9.65-.05-18.58-2.68-26.79-7.88l8.93,20.18c2.35,1.15,4.9,2.13,7.65,2.93,5.35,1.4,10.28,2.1,14.78,2.1,4.1.05,8.1-.55,12.01-1.8,5.4-1.85,9.95-4.78,13.66-8.78,3.55-4,5.9-8.5,7.05-13.51,1.05-4.25,1.58-10.06,1.58-17.41v-19.66c-.05-27.66-11.13-41.49-33.24-41.49ZM691.45,451.24c-2.55,3.6-5.88,5.4-9.98,5.4-3.05,0-5.75-1.17-8.1-3.53-3.6-3.6-5.4-8.83-5.4-15.68,0-5.75,1.32-10.53,3.98-14.33,2.55-3.55,5.78-5.33,9.68-5.33,3.6,0,6.68,1.58,9.23,4.73,3,3.8,4.5,8.78,4.5,14.93-.05,5.6-1.35,10.2-3.9,13.81ZM773.39,407.12l19.88-6.45v65.95c0,10.25-2.88,18.51-8.63,24.76-3.9,4.3-8.88,7.43-14.93,9.38-4.3,1.45-8.6,2.15-12.91,2.1-4.3,0-8.95-.7-13.96-2.1-2.55-.8-5-1.78-7.35-2.93l-8.93-20.18c8.1,5.2,16.61,7.83,25.51,7.88,6.15,0,11.15-1.95,15.01-5.85,4.2-4.1,6.3-9.63,6.3-16.58v-55.97ZM885.19,380.41c-2.15-2.15-3.23-4.65-3.23-7.5s1.08-5.38,3.23-7.58c2.05-2.05,4.5-3.08,7.35-3.08s5.23,1.03,7.43,3.08c2.15,2.15,3.23,4.68,3.23,7.58s-1.08,5.3-3.23,7.35c-2.15,2.15-4.63,3.23-7.43,3.23s-5.2-1.02-7.35-3.08ZM904.13,406.07c-5.5-5.85-14.71-8.78-27.61-8.78-9.1.05-16.38,1.6-21.83,4.65-7.5,4.3-11.26,11.21-11.26,20.71,0,6.35,1.8,11.48,5.4,15.38,4.6,5,11.93,7.5,21.98,7.5h18.76c-.5,2.95-1.53,5.2-3.08,6.75-1.95,1.95-4.83,2.93-8.63,2.93h-50.95c-2.15,0-3.73-.45-4.73-1.35-1.25-1.15-1.88-3-1.88-5.55v-75.86l-19.96,6.45v72.48c0,6.35,1.73,11.48,5.18,15.38,3.9,4.3,9.6,6.45,17.11,6.45h55.82c9.4,0,16.88-2.45,22.43-7.35,5.75-5.15,8.63-12.28,8.63-21.38v-23.79c0-5.85-1.8-10.73-5.4-14.63ZM889.72,431.88h-14.93c-2.65,0-4.95-.35-6.9-1.05-3.5-1.45-5.25-4.08-5.25-7.88,0-3.3,1.45-5.75,4.35-7.35,2.35-1.35,5.53-2.03,9.53-2.03,3.35.05,6,.53,7.95,1.43,2.2.9,3.7,2.48,4.5,4.73.5,1.25.75,3.88.75,7.88v4.28Z"/>
  </g>
</svg>