<?xml version="1.0" encoding="UTF-8"?>
<svg id="Layer_1" data-name="Layer 1" xmlns="http://www.w3.org/2000/svg" viewBox="280 300 190 250">
  <defs>
    <style>
      .cls-1 {
        fill: #fd5e02;
      }

      .cls-2 {
        fill: #f1f5f4;
      }
    </style>
  </defs>
  <path class="cls-1" d="M448.54,419.7h-105.23c-4.15,0-7.52,3.37-7.52,7.52v105.23c0,4.15-3.37,7.52-7.52,7.52h-45.1c-4.15,0-7.52-3.37-7.52-7.52v-70.23c0-7.97,3.17-15.62,8.81-21.26l72.59-72.59c5.64-5.64,13.29-8.81,21.26-8.81h70.23c4.15,0,7.52,3.37,7.52,7.52v45.1c0,4.15-3.37,7.52-7.52,7.52ZM372.28,477.44c-2.37-2.37-6.42-.69-6.42,2.66v52.35c0,4.15,3.37,7.52,7.52,7.52h52.35c3.35,0,5.03-4.05,2.66-6.42l-56.1-56.11ZM448.54,449.76h-52.35c-3.35,0-5.03,4.05-2.66,6.42l56.11,56.11c2.37,2.37,6.42.69,6.42-2.66v-52.35c0-4.15-3.37-7.52-7.52-7.52Z"/>
</svg>